<?xml version="1.0" encoding="utf-8"?>
<!-- Generator: Adobe Illustrator 21.1.0, SVG Export Plug-In . SVG Version: 6.00 Build 0)  -->
<svg version="1.1" id="Layer_1" xmlns="http://www.w3.org/2000/svg" xmlns:xlink="http://www.w3.org/1999/xlink" x="0px" y="0px"
	 viewBox="0 0 300 250" style="enable-background:new 0 0 300 250;" xml:space="preserve">
<style type="text/css">
	.st0{fill:#1E9AD2;}
</style>
<path class="st0" d="M0,0v250h300V0H0z M125.6,178c-9.1,0-18-1.2-26.2-3.5l-44.5,22.2l17.6-34.4c-20.5-13.7-33.7-35.1-33.7-59.1
	c0-41.3,38.9-74.8,86.8-74.8c8.4,0,16.6,1.1,24.3,3c33.4,8.4,58.4,33.5,62,64.1c-3.3-0.4-6.7-0.6-10.1-0.6c-6.9,0-13.6,0.9-20,2.5
	c-29.7,7.5-51.4,31-51.4,59c0,7.4,1.6,14.5,4.4,21.1C131.9,177.8,128.8,178,125.6,178z"/>
</svg>
