<?xml version="1.0" encoding="utf-8"?>
<!-- Generator: Adobe Illustrator 21.1.0, SVG Export Plug-In . SVG Version: 6.00 Build 0)  -->
<svg version="1.1" id="Layer_1" xmlns="http://www.w3.org/2000/svg" xmlns:xlink="http://www.w3.org/1999/xlink" x="0px" y="0px"
	 viewBox="0 0 2748.3 1800.2" style="enable-background:new 0 0 2748.3 1800.2;" xml:space="preserve">
<style type="text/css">
	.st0{fill:#F36D24;}
	.st1{fill:#1F99D1;}
</style>
<g>
	<path class="st0" d="M358,187.2c-0.4,0.6-0.8,1.1-1.3,1.4c-0.4,0.3-1,0.4-1.7,0.4c-0.7,0-1.5-0.2-2.3-0.6c-0.8-0.4-1.8-0.9-2.9-1.4
		c-1.1-0.5-2.3-1-3.7-1.4c-1.4-0.4-3.1-0.6-5-0.6c-3,0-5.3,0.6-7,1.9c-1.7,1.3-2.6,2.9-2.6,4.9c0,1.3,0.4,2.5,1.3,3.4
		c0.9,0.9,2,1.7,3.5,2.4c1.4,0.7,3.1,1.3,4.9,1.9c1.8,0.5,3.7,1.1,5.6,1.8c1.9,0.6,3.8,1.4,5.6,2.2c1.8,0.8,3.5,1.9,4.9,3.2
		c1.4,1.3,2.6,2.8,3.5,4.6c0.9,1.8,1.3,3.9,1.3,6.4c0,3-0.5,5.8-1.6,8.3c-1.1,2.5-2.7,4.7-4.8,6.6c-2.1,1.8-4.7,3.3-7.8,4.3
		c-3.1,1-6.7,1.6-10.7,1.6c-2.1,0-4.2-0.2-6.3-0.6c-2-0.4-4-0.9-5.9-1.6c-1.9-0.7-3.6-1.5-5.2-2.4c-1.6-0.9-3-1.9-4.2-3l3.5-5.7
		c0.4-0.7,1-1.2,1.6-1.6c0.6-0.4,1.4-0.5,2.3-0.5c0.9,0,1.8,0.3,2.6,0.8c0.8,0.5,1.8,1.1,2.9,1.7c1.1,0.6,2.4,1.2,3.9,1.7
		c1.5,0.5,3.4,0.8,5.6,0.8c1.8,0,3.3-0.2,4.6-0.6c1.3-0.4,2.3-1,3.2-1.7c0.8-0.7,1.4-1.5,1.8-2.4c0.4-0.9,0.6-1.9,0.6-2.8
		c0-1.5-0.4-2.7-1.3-3.6c-0.9-0.9-2-1.7-3.5-2.4c-1.4-0.7-3.1-1.3-4.9-1.9c-1.8-0.5-3.7-1.1-5.7-1.8c-1.9-0.6-3.8-1.4-5.7-2.3
		c-1.8-0.9-3.5-2-4.9-3.3c-1.4-1.3-2.6-3-3.5-4.9c-0.9-1.9-1.3-4.3-1.3-7.1c0-2.6,0.5-5,1.5-7.3c1-2.3,2.5-4.3,4.5-6.1
		c2-1.7,4.4-3.1,7.4-4.1c2.9-1,6.3-1.6,10.2-1.6c4.3,0,8.2,0.7,11.7,2.1c3.5,1.4,6.5,3.3,8.8,5.6L358,187.2z"/>
	<path class="st0" d="M396.3,254.5c-0.4,1.1-1,1.9-1.7,2.4c-0.7,0.5-1.8,0.8-3.3,0.8h-11.2l11.7-25L366.5,175h13.1
		c1.2,0,2.1,0.3,2.8,0.9c0.6,0.6,1.1,1.2,1.5,1.9l13.3,32.4c0.4,1.1,0.8,2.1,1.2,3.3c0.3,1.1,0.6,2.3,0.9,3.4
		c0.3-1.2,0.7-2.3,1.1-3.4c0.4-1.1,0.8-2.2,1.2-3.3l12.5-32.3c0.3-0.8,0.9-1.5,1.6-2c0.7-0.5,1.6-0.8,2.5-0.8h12L396.3,254.5z"/>
	<path class="st0" d="M476.1,187.2c-0.4,0.6-0.8,1.1-1.3,1.4c-0.4,0.3-1,0.4-1.7,0.4c-0.7,0-1.5-0.2-2.3-0.6
		c-0.8-0.4-1.8-0.9-2.9-1.4c-1.1-0.5-2.3-1-3.7-1.4c-1.4-0.4-3.1-0.6-5-0.6c-3,0-5.3,0.6-7,1.9c-1.7,1.3-2.6,2.9-2.6,4.9
		c0,1.3,0.4,2.5,1.3,3.4c0.9,0.9,2,1.7,3.5,2.4c1.4,0.7,3.1,1.3,4.9,1.9c1.8,0.5,3.7,1.1,5.6,1.8c1.9,0.6,3.8,1.4,5.6,2.2
		c1.8,0.8,3.5,1.9,4.9,3.2c1.4,1.3,2.6,2.8,3.5,4.6c0.9,1.8,1.3,3.9,1.3,6.4c0,3-0.5,5.8-1.6,8.3c-1.1,2.5-2.7,4.7-4.8,6.6
		c-2.1,1.8-4.7,3.3-7.8,4.3c-3.1,1-6.7,1.6-10.7,1.6c-2.1,0-4.2-0.2-6.3-0.6c-2-0.4-4-0.9-5.9-1.6c-1.9-0.7-3.6-1.5-5.2-2.4
		c-1.6-0.9-3-1.9-4.2-3l3.5-5.7c0.4-0.7,1-1.2,1.6-1.6c0.6-0.4,1.4-0.5,2.3-0.5c0.9,0,1.8,0.3,2.6,0.8c0.8,0.5,1.8,1.1,2.9,1.7
		c1.1,0.6,2.4,1.2,3.9,1.7c1.5,0.5,3.4,0.8,5.6,0.8c1.8,0,3.3-0.2,4.6-0.6c1.3-0.4,2.3-1,3.2-1.7c0.8-0.7,1.4-1.5,1.8-2.4
		c0.4-0.9,0.6-1.9,0.6-2.8c0-1.5-0.4-2.7-1.3-3.6c-0.9-0.9-2-1.7-3.5-2.4c-1.4-0.7-3.1-1.3-4.9-1.9c-1.8-0.5-3.7-1.1-5.7-1.8
		c-1.9-0.6-3.8-1.4-5.7-2.3c-1.8-0.9-3.5-2-4.9-3.3c-1.4-1.3-2.6-3-3.5-4.9c-0.9-1.9-1.3-4.3-1.3-7.1c0-2.6,0.5-5,1.5-7.3
		c1-2.3,2.5-4.3,4.5-6.1c2-1.7,4.4-3.1,7.4-4.1c2.9-1,6.3-1.6,10.2-1.6c4.3,0,8.2,0.7,11.7,2.1c3.5,1.4,6.5,3.3,8.8,5.6L476.1,187.2
		z"/>
	<path class="st0" d="M547.4,192.7c-1.5-4-3.5-7.3-6.2-10.1c-2.7-2.8-5.9-4.9-9.7-6.4c-3.8-1.5-8-2.2-12.7-2.2
		c-4.7,0-8.9,0.7-12.7,2.2c-3.8,1.5-7.1,3.6-9.8,6.4c-2.7,2.8-4.8,6.1-6.3,10.1c-1.5,4-2.2,8.4-2.2,13.3c0,4.9,0.7,9.4,2.2,13.4
		c1.5,4,3.6,7.4,6.3,10.2c2.7,2.8,6,4.9,9.8,6.4c3.8,1.5,8,2.2,12.7,2.2c4.7,0,8.9-0.7,12.7-2.2c3.8-1.5,7-3.6,9.7-6.4
		c2.7-2.8,4.7-6.2,6.2-10.2c1.5-4,2.2-8.4,2.2-13.4C549.6,201.2,548.9,196.7,547.4,192.7z M530.3,221.5c-2.5,3.5-6.3,5.2-11.5,5.2
		c-5.3,0-9.2-1.8-11.7-5.3c-2.5-3.5-3.8-8.6-3.8-15.3c0-6.7,1.3-11.8,3.8-15.4c2.5-3.5,6.4-5.3,11.7-5.3c5.2,0,9,1.8,11.5,5.3
		c2.5,3.5,3.7,8.7,3.7,15.4S532.8,218,530.3,221.5z"/>
	<path class="st0" d="M561.3,237.4V175h9.2c1.9,0,3.2,0.9,3.8,2.7l1,4.6c1.1-1.2,2.2-2.3,3.4-3.3c1.2-1,2.5-1.9,3.8-2.6
		c1.4-0.7,2.8-1.3,4.4-1.7c1.6-0.4,3.3-0.6,5.1-0.6c3.9,0,7.2,1.1,9.7,3.2c2.5,2.1,4.4,5,5.7,8.5c1-2.1,2.2-3.8,3.6-5.3
		s3.1-2.7,4.8-3.6c1.7-0.9,3.6-1.6,5.6-2.1c2-0.4,3.9-0.7,5.9-0.7c3.4,0,6.5,0.5,9.2,1.6c2.7,1.1,4.9,2.6,6.8,4.6
		c1.8,2,3.2,4.5,4.2,7.4c1,2.9,1.4,6.3,1.4,10v39.7h-15v-39.7c0-4-0.9-7-2.6-9c-1.7-2-4.3-3-7.7-3c-1.5,0-3,0.3-4.3,0.8
		c-1.3,0.5-2.5,1.3-3.5,2.3c-1,1-1.8,2.2-2.3,3.7c-0.6,1.5-0.9,3.2-0.9,5.2v39.7h-15.1v-39.7c0-4.2-0.8-7.2-2.5-9.1
		c-1.7-1.9-4.2-2.9-7.5-2.9c-2.1,0-4.2,0.5-6.1,1.6c-1.9,1.1-3.6,2.5-5.3,4.4v45.7H561.3z"/>
	<path class="st0" d="M719,192.7c-1.5-4-3.5-7.3-6.2-10.1c-2.7-2.8-5.9-4.9-9.7-6.4c-3.8-1.5-8-2.2-12.7-2.2
		c-4.7,0-8.9,0.7-12.7,2.2c-3.8,1.5-7.1,3.6-9.8,6.4c-2.7,2.8-4.8,6.1-6.3,10.1c-1.5,4-2.2,8.4-2.2,13.3c0,4.9,0.7,9.4,2.2,13.4
		c1.5,4,3.6,7.4,6.3,10.2c2.7,2.8,6,4.9,9.8,6.4c3.8,1.5,8,2.2,12.7,2.2c4.7,0,8.9-0.7,12.7-2.2c3.8-1.5,7-3.6,9.7-6.4
		c2.7-2.8,4.7-6.2,6.2-10.2c1.5-4,2.2-8.4,2.2-13.4C721.1,201.2,720.4,196.7,719,192.7z M701.9,221.5c-2.5,3.5-6.3,5.2-11.5,5.2
		c-5.3,0-9.2-1.8-11.7-5.3c-2.5-3.5-3.8-8.6-3.8-15.3c0-6.7,1.3-11.8,3.8-15.4c2.5-3.5,6.4-5.3,11.7-5.3c5.2,0,9,1.8,11.5,5.3
		c2.5,3.5,3.7,8.7,3.7,15.4S704.4,218,701.9,221.5z"/>
	<path class="st0" d="M769.9,187.2c-0.4,0.6-0.8,1.1-1.3,1.4c-0.4,0.3-1,0.4-1.7,0.4c-0.7,0-1.5-0.2-2.3-0.6
		c-0.8-0.4-1.8-0.9-2.9-1.4c-1.1-0.5-2.3-1-3.7-1.4c-1.4-0.4-3.1-0.6-5-0.6c-3,0-5.3,0.6-7,1.9c-1.7,1.3-2.6,2.9-2.6,4.9
		c0,1.3,0.4,2.5,1.3,3.4c0.9,0.9,2,1.7,3.5,2.4c1.4,0.7,3.1,1.3,4.9,1.9c1.8,0.5,3.7,1.1,5.6,1.8c1.9,0.6,3.8,1.4,5.6,2.2
		c1.8,0.8,3.5,1.9,4.9,3.2c1.4,1.3,2.6,2.8,3.5,4.6c0.9,1.8,1.3,3.9,1.3,6.4c0,3-0.5,5.8-1.6,8.3c-1.1,2.5-2.7,4.7-4.8,6.6
		c-2.1,1.8-4.7,3.3-7.8,4.3c-3.1,1-6.7,1.6-10.7,1.6c-2.1,0-4.2-0.2-6.3-0.6c-2-0.4-4-0.9-5.9-1.6c-1.9-0.7-3.6-1.5-5.2-2.4
		c-1.6-0.9-3-1.9-4.2-3l3.5-5.7c0.4-0.7,1-1.2,1.6-1.6c0.6-0.4,1.4-0.5,2.3-0.5c0.9,0,1.8,0.3,2.6,0.8c0.8,0.5,1.8,1.1,2.9,1.7
		c1.1,0.6,2.4,1.2,3.9,1.7c1.5,0.5,3.4,0.8,5.6,0.8c1.8,0,3.3-0.2,4.6-0.6c1.3-0.4,2.3-1,3.2-1.7c0.8-0.7,1.4-1.5,1.8-2.4
		c0.4-0.9,0.6-1.9,0.6-2.8c0-1.5-0.4-2.7-1.3-3.6c-0.9-0.9-2-1.7-3.5-2.4c-1.4-0.7-3.1-1.3-4.9-1.9c-1.8-0.5-3.7-1.1-5.7-1.8
		c-1.9-0.6-3.8-1.4-5.7-2.3c-1.8-0.9-3.5-2-4.9-3.3c-1.4-1.3-2.6-3-3.5-4.9c-0.9-1.9-1.3-4.3-1.3-7.1c0-2.6,0.5-5,1.5-7.3
		c1-2.3,2.5-4.3,4.5-6.1c2-1.7,4.4-3.1,7.4-4.1c2.9-1,6.3-1.6,10.2-1.6c4.3,0,8.2,0.7,11.7,2.1c3.5,1.4,6.5,3.3,8.8,5.6L769.9,187.2
		z"/>
	<path class="st1" d="M258,189.7c2.5-0.6,5.2-1,8-1c1.4,0,2.7,0.1,4,0.2c-1.4-12.2-11.4-22.3-24.8-25.6c-3.1-0.8-6.3-1.2-9.7-1.2
		c-19.1,0-34.7,13.4-34.7,29.8c0,9.6,5.3,18.1,13.4,23.6l-7,13.7l17.8-8.9c3.3,0.9,6.8,1.4,10.5,1.4c1.3,0,2.5-0.1,3.7-0.2
		c-1.1-2.6-1.7-5.5-1.7-8.4C237.5,202.1,246.2,192.7,258,189.7z"/>
	<path class="st0" d="M289.7,213.8c0-10-8.4-18.4-19.5-20.1c-1.3-0.2-2.7-0.3-4.1-0.3c-2.3,0-4.5,0.3-6.6,0.8
		c-9.8,2.5-17,10.3-17,19.6c0,2.5,0.6,4.9,1.5,7.2c2.4,5.5,7.4,9.8,13.8,11.9c2.6,0.8,5.4,1.3,8.3,1.3c2.5,0,4.9-0.3,7.2-0.9
		l12.1,6.1l-4.8-9.4C286.1,226.2,289.7,220.3,289.7,213.8z"/>
</g>
</svg>
